# xmcd
#
# Track frame offsets: 
#        150
#        13085
#        22202
#        34522
#        42947
#        59122
#        84300
#        98332
#        106995
#        121097
#        131390
#        143332
#        155862
#        167372
#        204725
#        222825
#        234000
#        248992
#        267312
#        283295
#        294912
#        308050
#        322612
#
# Disc length: 4553 seconds
#
# Revision: 1
# Processed by: cddbd v1.5.2PL0 Copyright (c) Steve Scherf et al.
# Submitted via: ExactAudioCopy v1.0b3
#
DISCID=3511c717
DTITLE=Robbins, Marty - The Essential Marty Robbins 1951-82 [Disc 2]
DYEAR=1991
DGENRE=Rockabilly
TTITLE0=Devil Woman
TTITLE1=Ruby Ann
TTITLE2=Smokin' Cigarettes And Drinkin' Coffee Blues
TTITLE3=I'm Gonna Be A Cowboy
TTITLE4=(Ghost) Riders In The Sky
TTITLE5=San Angelo
TTITLE6=Man Walks Among Us
TTITLE7=Beautiful Dreamer
TTITLE8=Beyond The Reef
TTITLE9=The Hawaiian Wedding Song
TTITLE10=Yours (Quiereme Mucho)
TTITLE11=Tonight Carmen
TTITLE12=Ribbon Of Darkness
TTITLE13=Feleena (From El Paso)
TTITLE14=Hello Heartache
TTITLE15=Begging To You
TTITLE16=I Walk Alone
TTITLE17=You Gave Me A Mountain
TTITLE18=My Woman, My Woman, My Wife
TTITLE19=Among My Souvenirs
TTITLE20=Return To Me
TTITLE21=Some Memories Just Won't Die
TTITLE22=El Paso City
EXTD=
EXTT0=
EXTT1=
EXTT2=
EXTT3=
EXTT4=
EXTT5=
EXTT6=
EXTT7=
EXTT8=
EXTT9=
EXTT10=
EXTT11=
EXTT12=
EXTT13=
EXTT14=
EXTT15=
EXTT16=
EXTT17=
EXTT18=
EXTT19=
EXTT20=
EXTT21=
EXTT22=
PLAYORDER=
